# xmcd CD database file
#
# Track frame offsets:
#	150
#	16556
#	29064
#	52539
#	58912
#
# Disc length: 1319 seconds
#
# Revision: 0
# Processed by: cddbd v1.5.1PL0 Copyright (c) Steve Scherf et al.
# Submitted via: CDex 1.51
#
DISCID=33052505
DTITLE=Whoopee!records - 突発CD Vol.4
DYEAR=1900
DGENRE=未分類 (日本)
TTITLE0=DANZEN!ふたりはプリキュア
TTITLE1=Free Bird
TTITLE2=Power Of Love
TTITLE3=たまいたちのよる
TTITLE4=新宿ブルース
EXTD=
EXTT0=
EXTT1=
EXTT2=
EXTT3=
EXTT4=
PLAYORDER=
